<svg width="173" height="40" viewBox="0 0 173 40" fill="none" xmlns="http://www.w3.org/2000/svg">
<path d="M34.1422 5.85781C30.3647 2.08031 25.3422 0 20 0C14.6578 0 9.63531 2.08031 5.85781 5.85781C2.08031 9.63531 0 14.6578 0 20C0 25.3422 2.08039 30.3646 5.85781 34.1422C9.63523 37.9198 14.6578 40 20 40C25.3422 40 30.3647 37.9197 34.1422 34.1422C37.9197 30.3647 40 25.3422 40 20C40 14.6578 37.9196 9.63539 34.1422 5.85781Z" fill="#33CC95"/>
<g clip-path="url(#clip0)">
<path d="M20.5714 8V33.1429" stroke="white" stroke-width="2" stroke-linecap="round" stroke-linejoin="round"/>
<path d="M26.2857 12.5714H17.7143C16.6534 12.5714 15.636 12.9929 14.8859 13.743C14.1357 14.4931 13.7143 15.5106 13.7143 16.5714C13.7143 17.6323 14.1357 18.6497 14.8859 19.3999C15.636 20.15 16.6534 20.5714 17.7143 20.5714H23.4286C24.4894 20.5714 25.5069 20.9929 26.257 21.743C27.0072 22.4932 27.4286 23.5106 27.4286 24.5714C27.4286 25.6323 27.0072 26.6497 26.257 27.3999C25.5069 28.15 24.4894 28.5714 23.4286 28.5714H13.7143" stroke="white" stroke-width="2" stroke-linecap="round" stroke-linejoin="round"/>
</g>
<path d="M64.7469 24.904L68.1069 14.704H71.6829L66.7629 28H62.6829L57.7869 14.704H61.3869L64.7469 24.904ZM76.9301 16.768C77.3621 16.064 77.9221 15.512 78.6101 15.112C79.3141 14.712 80.1141 14.512 81.0101 14.512V18.04H80.1221C79.0661 18.04 78.2661 18.288 77.7221 18.784C77.1941 19.28 76.9301 20.144 76.9301 21.376V28H73.5701V14.704H76.9301V16.768ZM105.504 14.512C107.136 14.512 108.448 15.016 109.44 16.024C110.448 17.016 110.952 18.408 110.952 20.2V28H107.592V20.656C107.592 19.616 107.328 18.824 106.8 18.28C106.272 17.72 105.552 17.44 104.64 17.44C103.728 17.44 103 17.72 102.456 18.28C101.928 18.824 101.664 19.616 101.664 20.656V28H98.3039V20.656C98.3039 19.616 98.0399 18.824 97.5119 18.28C96.9839 17.72 96.2639 17.44 95.3519 17.44C94.4239 17.44 93.6879 17.72 93.1439 18.28C92.6159 18.824 92.3519 19.616 92.3519 20.656V28H88.9919V14.704H92.3519V16.312C92.7839 15.752 93.3359 15.312 94.0079 14.992C94.6959 14.672 95.4479 14.512 96.2639 14.512C97.3039 14.512 98.2319 14.736 99.0479 15.184C99.8639 15.616 100.496 16.24 100.944 17.056C101.376 16.288 102 15.672 102.816 15.208C103.648 14.744 104.544 14.512 105.504 14.512ZM120.044 28.216C118.764 28.216 117.612 27.936 116.588 27.376C115.564 26.8 114.756 25.992 114.164 24.952C113.588 23.912 113.3 22.712 113.3 21.352C113.3 19.992 113.596 18.792 114.188 17.752C114.796 16.712 115.62 15.912 116.66 15.352C117.7 14.776 118.86 14.488 120.14 14.488C121.42 14.488 122.58 14.776 123.62 15.352C124.66 15.912 125.476 16.712 126.068 17.752C126.676 18.792 126.98 19.992 126.98 21.352C126.98 22.712 126.668 23.912 126.044 24.952C125.436 25.992 124.604 26.8 123.548 27.376C122.508 27.936 121.34 28.216 120.044 28.216ZM120.044 25.288C120.652 25.288 121.22 25.144 121.748 24.856C122.292 24.552 122.724 24.104 123.044 23.512C123.364 22.92 123.524 22.2 123.524 21.352C123.524 20.088 123.188 19.12 122.516 18.448C121.86 17.76 121.052 17.416 120.092 17.416C119.132 17.416 118.324 17.76 117.668 18.448C117.028 19.12 116.708 20.088 116.708 21.352C116.708 22.616 117.02 23.592 117.644 24.28C118.284 24.952 119.084 25.288 120.044 25.288ZM136.813 14.512C138.397 14.512 139.677 15.016 140.653 16.024C141.629 17.016 142.117 18.408 142.117 20.2V28H138.757V20.656C138.757 19.6 138.493 18.792 137.965 18.232C137.437 17.656 136.717 17.368 135.805 17.368C134.877 17.368 134.141 17.656 133.597 18.232C133.069 18.792 132.805 19.6 132.805 20.656V28H129.445V14.704H132.805V16.36C133.253 15.784 133.821 15.336 134.509 15.016C135.213 14.68 135.981 14.512 136.813 14.512ZM157.672 21.064C157.672 21.544 157.64 21.976 157.576 22.36H147.856C147.936 23.32 148.272 24.072 148.864 24.616C149.456 25.16 150.184 25.432 151.048 25.432C152.296 25.432 153.184 24.896 153.712 23.824H157.336C156.952 25.104 156.216 26.16 155.128 26.992C154.04 27.808 152.704 28.216 151.12 28.216C149.84 28.216 148.688 27.936 147.664 27.376C146.656 26.8 145.864 25.992 145.288 24.952C144.728 23.912 144.448 22.712 144.448 21.352C144.448 19.976 144.728 18.768 145.288 17.728C145.848 16.688 146.632 15.888 147.64 15.328C148.648 14.768 149.808 14.488 151.12 14.488C152.384 14.488 153.512 14.76 154.504 15.304C155.512 15.848 156.288 16.624 156.832 17.632C157.392 18.624 157.672 19.768 157.672 21.064ZM154.192 20.104C154.176 19.24 153.864 18.552 153.256 18.04C152.648 17.512 151.904 17.248 151.024 17.248C150.192 17.248 149.488 17.504 148.912 18.016C148.352 18.512 148.008 19.208 147.88 20.104H154.192ZM172.845 14.704L164.613 34.288H161.037L163.917 27.664L158.589 14.704H162.357L165.789 23.992L169.269 14.704H172.845Z" fill="white"/>
<defs>
<clipPath id="clip0">
<rect width="27.4286" height="27.4286" fill="white" transform="translate(6.85715 6.85714)"/>
</clipPath>
</defs>
</svg>
